<mxfile host="65bd71144e">
    <diagram id="fER66-QO0JmWQV-vCX6K" name="Page-1">
        <mxGraphModel dx="2770" dy="2543" grid="1" gridSize="10" guides="1" tooltips="1" connect="1" arrows="1" fold="1" page="1" pageScale="1" pageWidth="850" pageHeight="1100" math="0" shadow="0">
            <root>
                <mxCell id="0"/>
                <mxCell id="1" parent="0"/>
                <mxCell id="4" value="" style="edgeStyle=none;html=1;" edge="1" parent="1" source="2" target="3">
                    <mxGeometry relative="1" as="geometry"/>
                </mxCell>
                <mxCell id="2" value="INICIO&amp;nbsp;" style="ellipse;whiteSpace=wrap;html=1;fillColor=#e51400;fontColor=#ffffff;strokeColor=#B20000;" vertex="1" parent="1">
                    <mxGeometry x="380" y="-1080" width="120" height="80" as="geometry"/>
                </mxCell>
                <mxCell id="6" value="" style="edgeStyle=none;html=1;" edge="1" parent="1" source="3" target="5">
                    <mxGeometry relative="1" as="geometry"/>
                </mxCell>
                <mxCell id="3" value="c1 = &quot;&quot;&lt;br&gt;c2 = &quot;&quot;&lt;br&gt;c3 = &quot;&quot;&lt;br&gt;c4 = &quot;&quot;&lt;br&gt;c4 = &quot;&quot;&lt;br&gt;c5 = &quot;&quot;&lt;br&gt;c6 = &quot;&quot;" style="whiteSpace=wrap;html=1;fillColor=#f0a30a;fontColor=#000000;strokeColor=#BD7000;" vertex="1" parent="1">
                    <mxGeometry x="380" y="-960" width="120" height="120" as="geometry"/>
                </mxCell>
                <mxCell id="8" style="edgeStyle=none;html=1;entryX=0.5;entryY=0;entryDx=0;entryDy=0;" edge="1" parent="1" source="5" target="7">
                    <mxGeometry relative="1" as="geometry"/>
                </mxCell>
                <mxCell id="5" value="n&amp;nbsp;" style="shape=parallelogram;perimeter=parallelogramPerimeter;whiteSpace=wrap;html=1;fixedSize=1;fillColor=#1ba1e2;fontColor=#ffffff;strokeColor=#006EAF;" vertex="1" parent="1">
                    <mxGeometry x="380" y="-800" width="120" height="60" as="geometry"/>
                </mxCell>
                <mxCell id="10" value="" style="edgeStyle=none;html=1;" edge="1" parent="1" source="7" target="9">
                    <mxGeometry relative="1" as="geometry">
                        <Array as="points">
                            <mxPoint x="620" y="-640"/>
                        </Array>
                    </mxGeometry>
                </mxCell>
                <mxCell id="14" value="" style="edgeStyle=none;html=1;" edge="1" parent="1" source="7" target="13">
                    <mxGeometry relative="1" as="geometry"/>
                </mxCell>
                <mxCell id="7" value="i = 0, n-1" style="shape=hexagon;perimeter=hexagonPerimeter2;whiteSpace=wrap;html=1;fixedSize=1;fillColor=#d80073;fontColor=#ffffff;strokeColor=#A50040;" vertex="1" parent="1">
                    <mxGeometry x="380" y="-680" width="120" height="80" as="geometry"/>
                </mxCell>
                <mxCell id="12" value="" style="edgeStyle=none;html=1;" edge="1" parent="1" source="9" target="11">
                    <mxGeometry relative="1" as="geometry"/>
                </mxCell>
                <mxCell id="9" value="c1, c2, c3,c4, c5, c6&amp;nbsp;" style="shape=document;whiteSpace=wrap;html=1;boundedLbl=1;fillColor=#6a00ff;fontColor=#ffffff;strokeColor=#3700CC;" vertex="1" parent="1">
                    <mxGeometry x="560" y="-600" width="120" height="80" as="geometry"/>
                </mxCell>
                <mxCell id="11" value="FIN&amp;nbsp;" style="ellipse;whiteSpace=wrap;html=1;fillColor=#e51400;fontColor=#ffffff;strokeColor=#B20000;" vertex="1" parent="1">
                    <mxGeometry x="580" y="-470" width="80" height="50" as="geometry"/>
                </mxCell>
                <mxCell id="18" value="" style="edgeStyle=none;html=1;" edge="1" parent="1" source="13" target="17">
                    <mxGeometry relative="1" as="geometry"/>
                </mxCell>
                <mxCell id="13" value="cara = randint(1, 6)&amp;nbsp;" style="whiteSpace=wrap;html=1;fillColor=#fa6800;fontColor=#000000;strokeColor=#C73500;" vertex="1" parent="1">
                    <mxGeometry x="380" y="-520" width="120" height="60" as="geometry"/>
                </mxCell>
                <mxCell id="20" style="edgeStyle=none;html=1;entryX=0.5;entryY=0;entryDx=0;entryDy=0;" edge="1" parent="1" source="17" target="19">
                    <mxGeometry relative="1" as="geometry">
                        <Array as="points">
                            <mxPoint x="620" y="-350"/>
                        </Array>
                    </mxGeometry>
                </mxCell>
                <mxCell id="22" value="" style="edgeStyle=none;html=1;" edge="1" parent="1" source="17" target="21">
                    <mxGeometry relative="1" as="geometry">
                        <Array as="points">
                            <mxPoint x="280" y="-350"/>
                        </Array>
                    </mxGeometry>
                </mxCell>
                <mxCell id="17" value="cara = 1&amp;nbsp;" style="rhombus;whiteSpace=wrap;html=1;fillColor=#60a917;fontColor=#ffffff;strokeColor=#2D7600;" vertex="1" parent="1">
                    <mxGeometry x="400" y="-390" width="80" height="80" as="geometry"/>
                </mxCell>
                <mxCell id="19" value="c1 += &quot;*&quot;" style="whiteSpace=wrap;html=1;fillColor=#fa6800;fontColor=#000000;strokeColor=#C73500;" vertex="1" parent="1">
                    <mxGeometry x="560" y="-310" width="120" height="60" as="geometry"/>
                </mxCell>
                <mxCell id="24" value="" style="edgeStyle=none;html=1;" edge="1" parent="1" source="21" target="25">
                    <mxGeometry relative="1" as="geometry">
                        <mxPoint x="410" y="-280" as="targetPoint"/>
                        <Array as="points">
                            <mxPoint x="370" y="-280"/>
                            <mxPoint x="460" y="-280"/>
                        </Array>
                    </mxGeometry>
                </mxCell>
                <mxCell id="27" style="edgeStyle=none;html=1;entryX=0.5;entryY=0;entryDx=0;entryDy=0;" edge="1" parent="1" source="21" target="26">
                    <mxGeometry relative="1" as="geometry">
                        <Array as="points">
                            <mxPoint x="120" y="-280"/>
                        </Array>
                    </mxGeometry>
                </mxCell>
                <mxCell id="21" value="cara = 2&amp;nbsp;" style="rhombus;whiteSpace=wrap;html=1;fillColor=#60a917;fontColor=#ffffff;strokeColor=#2D7600;" vertex="1" parent="1">
                    <mxGeometry x="240" y="-320" width="80" height="80" as="geometry"/>
                </mxCell>
                <mxCell id="25" value="c2 += &quot;*&quot;" style="rounded=0;whiteSpace=wrap;html=1;fillColor=#fa6800;fontColor=#000000;strokeColor=#C73500;" vertex="1" parent="1">
                    <mxGeometry x="400" y="-200" width="120" height="60" as="geometry"/>
                </mxCell>
                <mxCell id="29" value="" style="edgeStyle=none;html=1;" edge="1" parent="1" source="26" target="28">
                    <mxGeometry relative="1" as="geometry">
                        <Array as="points">
                            <mxPoint x="300" y="-170"/>
                        </Array>
                    </mxGeometry>
                </mxCell>
                <mxCell id="31" value="" style="edgeStyle=none;html=1;" edge="1" parent="1" source="26" target="30">
                    <mxGeometry relative="1" as="geometry">
                        <Array as="points">
                            <mxPoint x="-40" y="-170"/>
                        </Array>
                    </mxGeometry>
                </mxCell>
                <mxCell id="26" value="cara = 3&amp;nbsp;" style="rhombus;whiteSpace=wrap;html=1;fillColor=#60a917;fontColor=#ffffff;strokeColor=#2D7600;" vertex="1" parent="1">
                    <mxGeometry x="80" y="-210" width="80" height="80" as="geometry"/>
                </mxCell>
                <mxCell id="28" value="c3 += &quot;*&quot;" style="whiteSpace=wrap;html=1;fillColor=#fa6800;fontColor=#000000;strokeColor=#C73500;" vertex="1" parent="1">
                    <mxGeometry x="240" y="-130" width="120" height="60" as="geometry"/>
                </mxCell>
                <mxCell id="36" value="" style="edgeStyle=none;html=1;entryX=0.5;entryY=0;entryDx=0;entryDy=0;" edge="1" parent="1" source="30" target="37">
                    <mxGeometry relative="1" as="geometry">
                        <Array as="points">
                            <mxPoint x="140" y="-90"/>
                        </Array>
                    </mxGeometry>
                </mxCell>
                <mxCell id="39" value="" style="edgeStyle=none;html=1;" edge="1" parent="1" source="30" target="38">
                    <mxGeometry relative="1" as="geometry">
                        <Array as="points">
                            <mxPoint x="-200" y="-90"/>
                        </Array>
                    </mxGeometry>
                </mxCell>
                <mxCell id="30" value="cara = 4&amp;nbsp;" style="rhombus;whiteSpace=wrap;html=1;fillColor=#60a917;fontColor=#ffffff;strokeColor=#2D7600;" vertex="1" parent="1">
                    <mxGeometry x="-80" y="-130" width="80" height="80" as="geometry"/>
                </mxCell>
                <mxCell id="37" value="c4 += &quot;*&quot;" style="rounded=0;whiteSpace=wrap;html=1;fillColor=#fa6800;fontColor=#000000;strokeColor=#C73500;" vertex="1" parent="1">
                    <mxGeometry x="80" y="-50" width="120" height="60" as="geometry"/>
                </mxCell>
                <mxCell id="40" value="" style="edgeStyle=none;html=1;" edge="1" parent="1" source="38" target="41">
                    <mxGeometry relative="1" as="geometry">
                        <mxPoint x="-70" y="-30" as="targetPoint"/>
                        <Array as="points">
                            <mxPoint x="-20" y="-20"/>
                        </Array>
                    </mxGeometry>
                </mxCell>
                <mxCell id="43" value="" style="edgeStyle=none;html=1;" edge="1" parent="1" source="38" target="42">
                    <mxGeometry relative="1" as="geometry">
                        <Array as="points">
                            <mxPoint x="-360" y="-20"/>
                        </Array>
                    </mxGeometry>
                </mxCell>
                <mxCell id="38" value="cara = 5&amp;nbsp;" style="rhombus;whiteSpace=wrap;html=1;fillColor=#60a917;fontColor=#ffffff;strokeColor=#2D7600;" vertex="1" parent="1">
                    <mxGeometry x="-240" y="-60" width="80" height="80" as="geometry"/>
                </mxCell>
                <mxCell id="41" value="c5 += &quot;*&quot;" style="rounded=0;whiteSpace=wrap;html=1;fillColor=#fa6800;fontColor=#000000;strokeColor=#C73500;" vertex="1" parent="1">
                    <mxGeometry x="-80" y="30.000000000000227" width="120" height="60" as="geometry"/>
                </mxCell>
                <mxCell id="46" style="edgeStyle=none;html=1;entryX=0.5;entryY=0;entryDx=0;entryDy=0;" edge="1" parent="1" source="42" target="45">
                    <mxGeometry relative="1" as="geometry">
                        <Array as="points">
                            <mxPoint x="-180" y="60"/>
                        </Array>
                    </mxGeometry>
                </mxCell>
                <mxCell id="42" value="cara = 6&amp;nbsp;" style="rhombus;whiteSpace=wrap;html=1;fillColor=#60a917;fontColor=#ffffff;strokeColor=#2D7600;" vertex="1" parent="1">
                    <mxGeometry x="-400" y="20" width="80" height="80" as="geometry"/>
                </mxCell>
                <mxCell id="45" value="c6 += &quot;*&quot;" style="rounded=0;whiteSpace=wrap;html=1;fillColor=#fa6800;fontColor=#000000;strokeColor=#C73500;" vertex="1" parent="1">
                    <mxGeometry x="-240" y="100" width="120" height="60" as="geometry"/>
                </mxCell>
                <mxCell id="47" value="" style="endArrow=none;html=1;entryX=0;entryY=0.5;entryDx=0;entryDy=0;exitX=0.5;exitY=1;exitDx=0;exitDy=0;" edge="1" parent="1" source="45" target="42">
                    <mxGeometry width="50" height="50" relative="1" as="geometry">
                        <mxPoint x="-70" y="200" as="sourcePoint"/>
                        <mxPoint x="-230" y="-30" as="targetPoint"/>
                        <Array as="points">
                            <mxPoint x="-180" y="200"/>
                            <mxPoint x="-440" y="200"/>
                            <mxPoint x="-440" y="60"/>
                        </Array>
                    </mxGeometry>
                </mxCell>
                <mxCell id="48" value="" style="endArrow=none;html=1;entryX=0.5;entryY=1;entryDx=0;entryDy=0;" edge="1" parent="1" target="19">
                    <mxGeometry width="50" height="50" relative="1" as="geometry">
                        <mxPoint x="320" y="400" as="sourcePoint"/>
                        <mxPoint x="680" y="-190" as="targetPoint"/>
                        <Array as="points">
                            <mxPoint x="320" y="440"/>
                            <mxPoint x="620" y="440"/>
                        </Array>
                    </mxGeometry>
                </mxCell>
                <mxCell id="49" value="" style="endArrow=none;html=1;entryX=0.5;entryY=1;entryDx=0;entryDy=0;" edge="1" parent="1" target="25">
                    <mxGeometry width="50" height="50" relative="1" as="geometry">
                        <mxPoint x="160" y="360" as="sourcePoint"/>
                        <mxPoint x="490" y="-60" as="targetPoint"/>
                        <Array as="points">
                            <mxPoint x="160" y="400"/>
                            <mxPoint x="460" y="400"/>
                        </Array>
                    </mxGeometry>
                </mxCell>
                <mxCell id="50" value="" style="endArrow=none;html=1;exitX=0.5;exitY=1;exitDx=0;exitDy=0;" edge="1" parent="1" source="41">
                    <mxGeometry width="50" height="50" relative="1" as="geometry">
                        <mxPoint x="-20" y="280" as="sourcePoint"/>
                        <mxPoint x="-300" y="200" as="targetPoint"/>
                        <Array as="points">
                            <mxPoint x="-20" y="280"/>
                            <mxPoint x="-300" y="280"/>
                        </Array>
                    </mxGeometry>
                </mxCell>
                <mxCell id="51" value="" style="endArrow=none;html=1;entryX=0.5;entryY=1;entryDx=0;entryDy=0;" edge="1" parent="1" target="37">
                    <mxGeometry width="50" height="50" relative="1" as="geometry">
                        <mxPoint x="-160" y="280" as="sourcePoint"/>
                        <mxPoint x="180" y="70" as="targetPoint"/>
                        <Array as="points">
                            <mxPoint x="-160" y="330"/>
                            <mxPoint x="140" y="330"/>
                        </Array>
                    </mxGeometry>
                </mxCell>
                <mxCell id="52" value="" style="endArrow=none;html=1;entryX=0.5;entryY=1;entryDx=0;entryDy=0;" edge="1" parent="1" target="28">
                    <mxGeometry width="50" height="50" relative="1" as="geometry">
                        <mxPoint y="330" as="sourcePoint"/>
                        <mxPoint x="340" y="40" as="targetPoint"/>
                        <Array as="points">
                            <mxPoint y="360"/>
                            <mxPoint x="300" y="360"/>
                        </Array>
                    </mxGeometry>
                </mxCell>
                <mxCell id="54" value="" style="endArrow=none;html=1;" edge="1" parent="1">
                    <mxGeometry width="50" height="50" relative="1" as="geometry">
                        <mxPoint x="320" y="-640" as="sourcePoint"/>
                        <mxPoint x="480" y="440" as="targetPoint"/>
                        <Array as="points">
                            <mxPoint x="-480" y="-30"/>
                            <mxPoint x="-480" y="480"/>
                            <mxPoint x="480" y="480"/>
                        </Array>
                    </mxGeometry>
                </mxCell>
                <mxCell id="55" value="" style="endArrow=classic;html=1;entryX=0;entryY=0.5;entryDx=0;entryDy=0;" edge="1" parent="1" target="7">
                    <mxGeometry width="50" height="50" relative="1" as="geometry">
                        <mxPoint x="320" y="-640" as="sourcePoint"/>
                        <mxPoint x="380" y="-670" as="targetPoint"/>
                    </mxGeometry>
                </mxCell>
            </root>
        </mxGraphModel>
    </diagram>
</mxfile>